<?xml version="1.0" standalone="no"?>
<!DOCTYPE svg PUBLIC "-//W3C//DTD SVG 20010904//EN"
 "http://www.w3.org/TR/2001/REC-SVG-20010904/DTD/svg10.dtd">
<svg version="1.0" xmlns="http://www.w3.org/2000/svg"
 width="260.000000pt" height="260.000000pt" viewBox="0 0 260.000000 260.000000"
 preserveAspectRatio="xMidYMid meet">
<metadata>
Created by potrace 1.14, written by Peter Selinger 2001-2017
</metadata>
<g transform="translate(0.000000,260.000000) scale(0.100000,-0.100000)"
fill="#000000" stroke="none">
<path d="M1548 2021 c-1 -4 -142 -61 -313 -126 -178 -68 -332 -133 -363 -153
-64 -42 -113 -100 -149 -178 -25 -53 -28 -70 -28 -169 0 -99 3 -116 28 -169
53 -113 141 -193 255 -230 28 -10 52 -22 52 -28 0 -5 -23 -77 -51 -159 -31
-91 -48 -157 -44 -169 10 -31 57 -70 83 -70 12 0 33 6 45 14 12 8 123 53 247
99 366 138 383 145 435 185 63 48 119 122 146 192 17 46 20 72 17 160 -3 90
-7 113 -31 161 -52 108 -144 189 -254 224 -62 20 -62 5 4 198 23 70 43 136 43
147 0 32 -52 80 -88 80 -17 0 -32 -4 -34 -9z m5 -408 c9 -15 -143 -467 -169
-504 -54 -78 -145 -121 -259 -123 -66 -1 -79 2 -77 14 11 45 141 440 155 466
17 33 80 94 119 115 53 29 219 52 231 32z"/>
</g>
</svg>
